<mxfile host="app.diagrams.net" agent="Mozilla/5.0 (Windows NT 10.0; Win64; x64) AppleWebKit/537.36 (KHTML, like Gecko) Chrome/130.0.0.0 Safari/537.36" version="24.8.6">
  <diagram name="Page-1" id="ZJnhJ7caaQFOjjDHqMTB">
    <mxGraphModel grid="1" page="1" gridSize="10" guides="1" tooltips="1" connect="1" arrows="1" fold="1" pageScale="1" pageWidth="827" pageHeight="1169" math="0" shadow="0">
      <root>
        <mxCell id="0" />
        <mxCell id="1" parent="0" />
        <mxCell id="YbGygCR5usOk8Z8FCMAA-1" value="1" style="whiteSpace=wrap;html=1;aspect=fixed;fontSize=24;fillColor=#97D077;" vertex="1" parent="1">
          <mxGeometry x="190" y="200" width="80" height="80" as="geometry" />
        </mxCell>
        <mxCell id="YbGygCR5usOk8Z8FCMAA-2" value="2" style="whiteSpace=wrap;html=1;aspect=fixed;fontSize=24;fillColor=#B9E0A5;" vertex="1" parent="1">
          <mxGeometry x="280" y="200" width="80" height="80" as="geometry" />
        </mxCell>
        <mxCell id="YbGygCR5usOk8Z8FCMAA-3" value="3" style="whiteSpace=wrap;html=1;aspect=fixed;fontSize=24;fillColor=#FFF2CC;" vertex="1" parent="1">
          <mxGeometry x="370" y="200" width="80" height="80" as="geometry" />
        </mxCell>
        <mxCell id="YbGygCR5usOk8Z8FCMAA-4" value="4" style="whiteSpace=wrap;html=1;aspect=fixed;fontSize=24;fillColor=#FFE599;" vertex="1" parent="1">
          <mxGeometry x="460" y="200" width="80" height="80" as="geometry" />
        </mxCell>
        <mxCell id="YbGygCR5usOk8Z8FCMAA-5" value="5" style="whiteSpace=wrap;html=1;aspect=fixed;fontSize=24;fillColor=#FFE599;" vertex="1" parent="1">
          <mxGeometry x="550" y="200" width="80" height="80" as="geometry" />
        </mxCell>
        <mxCell id="YbGygCR5usOk8Z8FCMAA-6" value="2" style="whiteSpace=wrap;html=1;aspect=fixed;fontSize=24;fillColor=#B9E0A5;" vertex="1" parent="1">
          <mxGeometry x="190" y="290" width="80" height="80" as="geometry" />
        </mxCell>
        <mxCell id="YbGygCR5usOk8Z8FCMAA-7" value="4" style="whiteSpace=wrap;html=1;aspect=fixed;fontSize=24;fillColor=#FFE599;" vertex="1" parent="1">
          <mxGeometry x="280" y="290" width="80" height="80" as="geometry" />
        </mxCell>
        <mxCell id="YbGygCR5usOk8Z8FCMAA-8" value="6" style="whiteSpace=wrap;html=1;aspect=fixed;fontSize=24;fillColor=#FFE599;" vertex="1" parent="1">
          <mxGeometry x="370" y="290" width="80" height="80" as="geometry" />
        </mxCell>
        <mxCell id="YbGygCR5usOk8Z8FCMAA-9" value="8" style="whiteSpace=wrap;html=1;aspect=fixed;fontSize=24;fillColor=#FFD966;" vertex="1" parent="1">
          <mxGeometry x="460" y="290" width="80" height="80" as="geometry" />
        </mxCell>
        <mxCell id="YbGygCR5usOk8Z8FCMAA-10" value="10" style="whiteSpace=wrap;html=1;aspect=fixed;fontSize=24;fillColor=#FFB570;" vertex="1" parent="1">
          <mxGeometry x="550" y="290" width="80" height="80" as="geometry" />
        </mxCell>
        <mxCell id="YbGygCR5usOk8Z8FCMAA-11" value="3" style="whiteSpace=wrap;html=1;aspect=fixed;fontSize=24;fillColor=#FFF2CC;" vertex="1" parent="1">
          <mxGeometry x="190" y="380" width="80" height="80" as="geometry" />
        </mxCell>
        <mxCell id="YbGygCR5usOk8Z8FCMAA-12" value="6" style="whiteSpace=wrap;html=1;aspect=fixed;fontSize=24;fillColor=#FFE599;" vertex="1" parent="1">
          <mxGeometry x="280" y="380" width="80" height="80" as="geometry" />
        </mxCell>
        <mxCell id="YbGygCR5usOk8Z8FCMAA-13" value="9" style="whiteSpace=wrap;html=1;aspect=fixed;fontSize=24;fillColor=#FFD966;" vertex="1" parent="1">
          <mxGeometry x="370" y="380" width="80" height="80" as="geometry" />
        </mxCell>
        <mxCell id="YbGygCR5usOk8Z8FCMAA-14" value="12" style="whiteSpace=wrap;html=1;aspect=fixed;fontSize=24;fillColor=#FFB570;" vertex="1" parent="1">
          <mxGeometry x="460" y="380" width="80" height="80" as="geometry" />
        </mxCell>
        <mxCell id="YbGygCR5usOk8Z8FCMAA-15" value="15" style="whiteSpace=wrap;html=1;aspect=fixed;fontSize=24;fillColor=#F19C99;" vertex="1" parent="1">
          <mxGeometry x="550" y="380" width="80" height="80" as="geometry" />
        </mxCell>
        <mxCell id="YbGygCR5usOk8Z8FCMAA-16" value="4" style="whiteSpace=wrap;html=1;aspect=fixed;fontSize=24;fillColor=#FFE599;" vertex="1" parent="1">
          <mxGeometry x="190" y="470" width="80" height="80" as="geometry" />
        </mxCell>
        <mxCell id="YbGygCR5usOk8Z8FCMAA-17" value="8" style="whiteSpace=wrap;html=1;aspect=fixed;fontSize=24;fillColor=#FFD966;" vertex="1" parent="1">
          <mxGeometry x="280" y="470" width="80" height="80" as="geometry" />
        </mxCell>
        <mxCell id="YbGygCR5usOk8Z8FCMAA-18" value="12" style="whiteSpace=wrap;html=1;aspect=fixed;fontSize=24;fillColor=#FFB570;" vertex="1" parent="1">
          <mxGeometry x="370" y="470" width="80" height="80" as="geometry" />
        </mxCell>
        <mxCell id="YbGygCR5usOk8Z8FCMAA-19" value="16" style="whiteSpace=wrap;html=1;aspect=fixed;fontSize=24;fillColor=#F19C99;" vertex="1" parent="1">
          <mxGeometry x="460" y="470" width="80" height="80" as="geometry" />
        </mxCell>
        <mxCell id="YbGygCR5usOk8Z8FCMAA-20" value="20" style="whiteSpace=wrap;html=1;aspect=fixed;fontSize=24;fillColor=#EA6B66;" vertex="1" parent="1">
          <mxGeometry x="550" y="470" width="80" height="80" as="geometry" />
        </mxCell>
        <mxCell id="YbGygCR5usOk8Z8FCMAA-21" value="5" style="whiteSpace=wrap;html=1;aspect=fixed;fontSize=24;fillColor=#FFE599;" vertex="1" parent="1">
          <mxGeometry x="190" y="560" width="80" height="80" as="geometry" />
        </mxCell>
        <mxCell id="YbGygCR5usOk8Z8FCMAA-22" value="10" style="whiteSpace=wrap;html=1;aspect=fixed;fontSize=24;fillColor=#FFB570;" vertex="1" parent="1">
          <mxGeometry x="280" y="560" width="80" height="80" as="geometry" />
        </mxCell>
        <mxCell id="YbGygCR5usOk8Z8FCMAA-23" value="15" style="whiteSpace=wrap;html=1;aspect=fixed;fontSize=24;fillColor=#F19C99;" vertex="1" parent="1">
          <mxGeometry x="370" y="560" width="80" height="80" as="geometry" />
        </mxCell>
        <mxCell id="YbGygCR5usOk8Z8FCMAA-24" value="20" style="whiteSpace=wrap;html=1;aspect=fixed;fontSize=24;fillColor=#EA6B66;" vertex="1" parent="1">
          <mxGeometry x="460" y="560" width="80" height="80" as="geometry" />
        </mxCell>
        <mxCell id="YbGygCR5usOk8Z8FCMAA-25" value="25" style="whiteSpace=wrap;html=1;aspect=fixed;fontSize=24;fillColor=#FF3333;" vertex="1" parent="1">
          <mxGeometry x="550" y="560" width="80" height="80" as="geometry" />
        </mxCell>
        <mxCell id="YbGygCR5usOk8Z8FCMAA-50" style="edgeStyle=orthogonalEdgeStyle;rounded=0;orthogonalLoop=1;jettySize=auto;html=1;" edge="1" parent="1" source="YbGygCR5usOk8Z8FCMAA-26">
          <mxGeometry relative="1" as="geometry">
            <mxPoint x="470" y="120" as="targetPoint" />
          </mxGeometry>
        </mxCell>
        <mxCell id="YbGygCR5usOk8Z8FCMAA-26" value="&lt;font style=&quot;font-size: 24px;&quot;&gt;Severity&lt;/font&gt;" style="text;html=1;align=center;verticalAlign=middle;whiteSpace=wrap;rounded=0;" vertex="1" parent="1">
          <mxGeometry x="120" y="100" width="110" height="40" as="geometry" />
        </mxCell>
        <mxCell id="YbGygCR5usOk8Z8FCMAA-52" style="edgeStyle=orthogonalEdgeStyle;rounded=0;orthogonalLoop=1;jettySize=auto;html=1;" edge="1" parent="1" source="YbGygCR5usOk8Z8FCMAA-27">
          <mxGeometry relative="1" as="geometry">
            <mxPoint x="100" y="480" as="targetPoint" />
          </mxGeometry>
        </mxCell>
        <mxCell id="YbGygCR5usOk8Z8FCMAA-27" value="&lt;font style=&quot;font-size: 24px;&quot;&gt;Likelihood&lt;/font&gt;" style="text;html=1;align=center;verticalAlign=middle;whiteSpace=wrap;rounded=0;horizontal=0;" vertex="1" parent="1">
          <mxGeometry x="80" y="150" width="40" height="125" as="geometry" />
        </mxCell>
        <mxCell id="YbGygCR5usOk8Z8FCMAA-29" value="1" style="text;html=1;align=center;verticalAlign=middle;whiteSpace=wrap;rounded=0;fontSize=24;" vertex="1" parent="1">
          <mxGeometry x="200" y="150" width="60" height="30" as="geometry" />
        </mxCell>
        <mxCell id="YbGygCR5usOk8Z8FCMAA-30" value="2" style="text;html=1;align=center;verticalAlign=middle;whiteSpace=wrap;rounded=0;fontSize=24;" vertex="1" parent="1">
          <mxGeometry x="290" y="150" width="60" height="30" as="geometry" />
        </mxCell>
        <mxCell id="YbGygCR5usOk8Z8FCMAA-31" value="Insignificant" style="text;html=1;align=center;verticalAlign=middle;whiteSpace=wrap;rounded=0;" vertex="1" parent="1">
          <mxGeometry x="200" y="170" width="60" height="30" as="geometry" />
        </mxCell>
        <mxCell id="YbGygCR5usOk8Z8FCMAA-32" value="Minor" style="text;html=1;align=center;verticalAlign=middle;whiteSpace=wrap;rounded=0;" vertex="1" parent="1">
          <mxGeometry x="290" y="170" width="60" height="30" as="geometry" />
        </mxCell>
        <mxCell id="YbGygCR5usOk8Z8FCMAA-33" value="3" style="text;html=1;align=center;verticalAlign=middle;whiteSpace=wrap;rounded=0;fontSize=24;" vertex="1" parent="1">
          <mxGeometry x="380" y="150" width="60" height="30" as="geometry" />
        </mxCell>
        <mxCell id="YbGygCR5usOk8Z8FCMAA-34" value="Moderate" style="text;html=1;align=center;verticalAlign=middle;whiteSpace=wrap;rounded=0;" vertex="1" parent="1">
          <mxGeometry x="380" y="170" width="60" height="30" as="geometry" />
        </mxCell>
        <mxCell id="YbGygCR5usOk8Z8FCMAA-35" value="4" style="text;html=1;align=center;verticalAlign=middle;whiteSpace=wrap;rounded=0;fontSize=24;" vertex="1" parent="1">
          <mxGeometry x="470" y="150" width="60" height="30" as="geometry" />
        </mxCell>
        <mxCell id="YbGygCR5usOk8Z8FCMAA-36" value="Major" style="text;html=1;align=center;verticalAlign=middle;whiteSpace=wrap;rounded=0;" vertex="1" parent="1">
          <mxGeometry x="470" y="170" width="60" height="30" as="geometry" />
        </mxCell>
        <mxCell id="YbGygCR5usOk8Z8FCMAA-37" value="5" style="text;html=1;align=center;verticalAlign=middle;whiteSpace=wrap;rounded=0;fontSize=24;" vertex="1" parent="1">
          <mxGeometry x="560" y="150" width="60" height="30" as="geometry" />
        </mxCell>
        <mxCell id="YbGygCR5usOk8Z8FCMAA-38" value="Severe" style="text;html=1;align=center;verticalAlign=middle;whiteSpace=wrap;rounded=0;" vertex="1" parent="1">
          <mxGeometry x="560" y="170" width="60" height="30" as="geometry" />
        </mxCell>
        <mxCell id="YbGygCR5usOk8Z8FCMAA-39" value="1" style="text;html=1;align=center;verticalAlign=middle;whiteSpace=wrap;rounded=0;fontSize=24;" vertex="1" parent="1">
          <mxGeometry x="120" y="215" width="60" height="30" as="geometry" />
        </mxCell>
        <mxCell id="YbGygCR5usOk8Z8FCMAA-40" value="Rare" style="text;html=1;align=center;verticalAlign=middle;whiteSpace=wrap;rounded=0;" vertex="1" parent="1">
          <mxGeometry x="120" y="235" width="60" height="30" as="geometry" />
        </mxCell>
        <mxCell id="YbGygCR5usOk8Z8FCMAA-41" value="2" style="text;html=1;align=center;verticalAlign=middle;whiteSpace=wrap;rounded=0;fontSize=24;" vertex="1" parent="1">
          <mxGeometry x="120" y="305" width="60" height="30" as="geometry" />
        </mxCell>
        <mxCell id="YbGygCR5usOk8Z8FCMAA-42" value="Unlikely" style="text;html=1;align=center;verticalAlign=middle;whiteSpace=wrap;rounded=0;" vertex="1" parent="1">
          <mxGeometry x="120" y="325" width="60" height="30" as="geometry" />
        </mxCell>
        <mxCell id="YbGygCR5usOk8Z8FCMAA-43" value="3" style="text;html=1;align=center;verticalAlign=middle;whiteSpace=wrap;rounded=0;fontSize=24;" vertex="1" parent="1">
          <mxGeometry x="120" y="395" width="60" height="30" as="geometry" />
        </mxCell>
        <mxCell id="YbGygCR5usOk8Z8FCMAA-44" value="Possible" style="text;html=1;align=center;verticalAlign=middle;whiteSpace=wrap;rounded=0;" vertex="1" parent="1">
          <mxGeometry x="120" y="415" width="60" height="30" as="geometry" />
        </mxCell>
        <mxCell id="YbGygCR5usOk8Z8FCMAA-45" value="4" style="text;html=1;align=center;verticalAlign=middle;whiteSpace=wrap;rounded=0;fontSize=24;" vertex="1" parent="1">
          <mxGeometry x="120" y="485" width="60" height="30" as="geometry" />
        </mxCell>
        <mxCell id="YbGygCR5usOk8Z8FCMAA-46" value="Likely" style="text;html=1;align=center;verticalAlign=middle;whiteSpace=wrap;rounded=0;" vertex="1" parent="1">
          <mxGeometry x="120" y="505" width="60" height="30" as="geometry" />
        </mxCell>
        <mxCell id="YbGygCR5usOk8Z8FCMAA-47" value="5" style="text;html=1;align=center;verticalAlign=middle;whiteSpace=wrap;rounded=0;fontSize=24;" vertex="1" parent="1">
          <mxGeometry x="120" y="575" width="60" height="30" as="geometry" />
        </mxCell>
        <mxCell id="YbGygCR5usOk8Z8FCMAA-48" value="Certain" style="text;html=1;align=center;verticalAlign=middle;whiteSpace=wrap;rounded=0;" vertex="1" parent="1">
          <mxGeometry x="120" y="595" width="60" height="30" as="geometry" />
        </mxCell>
      </root>
    </mxGraphModel>
  </diagram>
</mxfile>
